<svg width="1200" height="360" viewBox="0 0 1200 360" fill="none" xmlns="http://www.w3.org/2000/svg">
  <rect width="1200" height="360" rx="24" fill="#F5F7FA"/>
  <text x="60" y="60" fill="#132238" font-family="Arial, Helvetica, sans-serif" font-size="28" font-weight="700">Why This Prototype Matters</text>
  <text x="60" y="92" fill="#5D708C" font-family="Arial, Helvetica, sans-serif" font-size="16">It demonstrates the consumer experience hypothesis behind a broader interactive ad product.</text>

  <g>
    <rect x="108" y="138" width="250" height="110" rx="18" fill="#FFFFFF" stroke="#D7E0EA"/>
    <text x="136" y="176" fill="#132238" font-family="Arial, Helvetica, sans-serif" font-size="24" font-weight="700">Viewer Engagement</text>
    <text x="136" y="203" fill="#5D708C" font-family="Arial, Helvetica, sans-serif" font-size="14">Turns passive viewing into a short,</text>
    <text x="136" y="222" fill="#5D708C" font-family="Arial, Helvetica, sans-serif" font-size="14">opt-in interactive moment</text>
  </g>

  <g>
    <rect x="475" y="118" width="250" height="126" rx="20" fill="#FFF4E0" stroke="#FFB84D" stroke-width="2.5"/>
    <text x="551" y="162" fill="#132238" font-family="Arial, Helvetica, sans-serif" font-size="22" font-weight="700">Playbreak</text>
    <text x="529" y="188" fill="#132238" font-family="Arial, Helvetica, sans-serif" font-size="22" font-weight="700">Experience</text>
    <text x="512" y="216" fill="#5D708C" font-family="Arial, Helvetica, sans-serif" font-size="14">A branded mini-game with reward payoff</text>
  </g>

  <g>
    <rect x="842" y="138" width="250" height="110" rx="18" fill="#FFFFFF" stroke="#D7E0EA"/>
    <text x="883" y="176" fill="#132238" font-family="Arial, Helvetica, sans-serif" font-size="24" font-weight="700">Advertiser Value</text>
    <text x="869" y="203" fill="#5D708C" font-family="Arial, Helvetica, sans-serif" font-size="14">Creates recall, reward redemption,</text>
    <text x="893" y="222" fill="#5D708C" font-family="Arial, Helvetica, sans-serif" font-size="14">and a stronger value exchange</text>
  </g>

  <g>
    <rect x="475" y="262" width="250" height="56" rx="16" fill="#FFFFFF" stroke="#D7E0EA"/>
    <text x="500" y="296" fill="#132238" font-family="Arial, Helvetica, sans-serif" font-size="18" font-weight="700">Product Insight:</text>
    <text x="618" y="296" fill="#5D708C" font-family="Arial, Helvetica, sans-serif" font-size="18">Does interactive streaming feel natural enough to scale?</text>
  </g>

  <path d="M358 193C404 193 432 182 475 181" stroke="#9FB2C8" stroke-width="4" stroke-linecap="round"/>
  <path d="M725 181C768 182 796 193 842 193" stroke="#9FB2C8" stroke-width="4" stroke-linecap="round"/>
  <path d="M600 244V262" stroke="#9FB2C8" stroke-width="4" stroke-linecap="round"/>
</svg>
